<svg width="16" height="16" viewBox="0 0 16 16" fill="none" xmlns="http://www.w3.org/2000/svg">
<path d="M8.13 1.99999L5.54 6.49999C5.45206 6.6523 5.40585 6.82511 5.40602 7.00099C5.4062 7.17686 5.45275 7.34958 5.54099 7.50172C5.62923 7.65385 5.75603 7.78003 5.90861 7.86751C6.06118 7.95499 6.23413 8.00069 6.41 7.99999H11.59C11.7659 8.00069 11.9388 7.95499 12.0914 7.86751C12.244 7.78003 12.3708 7.65385 12.459 7.50172C12.5473 7.34958 12.5938 7.17686 12.594 7.00099C12.5942 6.82511 12.5479 6.6523 12.46 6.49999L9.87 1.99999C9.78278 1.84609 9.6563 1.71808 9.50346 1.62902C9.35062 1.53997 9.17689 1.49304 9 1.49304C8.82311 1.49304 8.64938 1.53997 8.49654 1.62902C8.3437 1.71808 8.21722 1.84609 8.13 1.99999Z" fill="#F06292"/>
<path d="M14.5 7.06001C14.0096 5.76427 13.1995 4.61359 12.145 3.71501L12.245 3.61501C12.3381 3.52133 12.3904 3.39461 12.3904 3.26251C12.3904 3.13042 12.3381 3.00369 12.245 2.91001C12.1985 2.86315 12.1432 2.82595 12.0823 2.80057C12.0214 2.77518 11.956 2.76211 11.89 2.76211C11.824 2.76211 11.7586 2.77518 11.6977 2.80057C11.6368 2.82595 11.5815 2.86315 11.535 2.91001L11.345 3.10001L11 2.87001L9.8 1.69001C9.75352 1.64315 9.69822 1.60595 9.63729 1.58057C9.57636 1.55518 9.51101 1.54211 9.445 1.54211C9.37899 1.54211 9.31364 1.55518 9.25271 1.58057C9.19178 1.60595 9.13648 1.64315 9.09 1.69001L6.035 4.74501C5.94187 4.83869 5.8896 4.96542 5.8896 5.09751C5.8896 5.22961 5.94187 5.35633 6.035 5.45001L6.905 6.32001L1.145 12.08C1.05187 12.1737 0.999603 12.3004 0.999603 12.4325C0.999603 12.5646 1.05187 12.6913 1.145 12.785L2.065 13.7C2.15868 13.7931 2.28541 13.8454 2.4175 13.8454C2.54959 13.8454 2.67632 13.7931 2.77 13.7L8.685 7.79001C10.0813 8.16626 11.2899 9.04383 12.08 10.255C12.7606 11.3434 13.0564 12.6286 12.92 13.905C12.9076 14.0196 12.9352 14.1349 12.9981 14.2315C13.0609 14.3281 13.1552 14.4 13.265 14.435C13.3151 14.451 13.3674 14.4594 13.42 14.46C13.5073 14.4595 13.5929 14.4361 13.6683 14.3923C13.7437 14.3484 13.8064 14.2856 13.85 14.21C14.185 13.625 15.795 10.53 14.5 7.06001ZM9.445 2.75001L9.945 3.25001L7.595 5.59501L7.095 5.09501L9.445 2.75001ZM2.415 12.64L2.205 12.43L2.705 11.93L2.915 12.14L2.415 12.64ZM3.64 11.42L3.43 11.21L7.61 7.02501L7.82 7.23501L3.64 11.42ZM13.765 11.715C13.5978 11.0064 13.3139 10.3305 12.925 9.71501C11.9725 8.23871 10.4882 7.18587 8.78 6.77501L8.32 6.31501L9 5.66501C9.81114 5.89735 10.5596 6.30918 11.19 6.87001C11.2752 6.94782 11.3848 6.99376 11.5 7.00001C11.6008 6.99975 11.6992 6.96902 11.7822 6.91186C11.8653 6.85469 11.9291 6.77376 11.9653 6.67968C12.0015 6.58561 12.0085 6.48278 11.9852 6.38468C11.962 6.28659 11.9096 6.19782 11.835 6.13001C11.2316 5.5845 10.5311 5.1571 9.77 4.87001L10.74 3.90001C12.024 4.74182 13.0106 5.96631 13.56 7.40001C14.0652 8.7841 14.1367 10.2893 13.765 11.715Z" fill="#D9D9D9"/>
</svg>
