<svg width="16" height="16" viewBox="0 0 16 16" fill="none" xmlns="http://www.w3.org/2000/svg">
<path d="M12.5 3.5H9.5C8.94772 3.5 8.5 3.94772 8.5 4.5V7.5C8.5 8.05228 8.94772 8.5 9.5 8.5H12.5C13.0523 8.5 13.5 8.05228 13.5 7.5V4.5C13.5 3.94772 13.0523 3.5 12.5 3.5Z" fill="#F06292"/>
<path d="M12.235 5.425C12.311 5.46888 12.3972 5.49199 12.485 5.49199C12.5728 5.49199 12.659 5.46888 12.735 5.425L14.735 4.425C14.8126 4.38372 14.878 4.32269 14.9246 4.24807C14.9711 4.17346 14.9971 4.08789 15 4V3C15 2.86739 14.9473 2.74021 14.8536 2.64645C14.7598 2.55268 14.6326 2.5 14.5 2.5H14.14C12.5883 1.6352 10.8061 1.27456 9.04023 1.46807C7.27442 1.66159 5.61255 2.39967 4.285 3.58L4 3.295V1.5C4 1.36739 3.94732 1.24021 3.85355 1.14645C3.75979 1.05268 3.63261 1 3.5 1H1.5C1.36739 1 1.24021 1.05268 1.14645 1.14645C1.05268 1.24021 1 1.36739 1 1.5V3.5C1 3.63261 1.05268 3.75979 1.14645 3.85355C1.24021 3.94732 1.36739 4 1.5 4H3.295L3.58 4.285C2.39967 5.61255 1.66159 7.27442 1.46807 9.04023C1.27456 10.8061 1.6352 12.5883 2.5 14.14V14.5C2.5 14.6326 2.55268 14.7598 2.64645 14.8536C2.74021 14.9473 2.86739 15 3 15H4C4.09233 14.9997 4.18279 14.9739 4.26133 14.9253C4.33988 14.8768 4.40345 14.8075 4.445 14.725L5.445 12.725C5.48336 12.6489 5.50162 12.5642 5.49805 12.4791C5.49448 12.3939 5.4692 12.3111 5.42462 12.2384C5.38003 12.1658 5.31762 12.1058 5.2433 12.064C5.16898 12.0223 5.08523 12.0003 5 12H4.215L4.155 11.81L7.655 8.335L10.5 11.205V12.5C10.4996 12.5658 10.5122 12.631 10.5371 12.692C10.562 12.7529 10.5987 12.8083 10.645 12.855L12.645 14.855C12.6917 14.9013 12.7471 14.938 12.808 14.9629C12.869 14.9878 12.9342 15.0004 13 15C13.0656 15.0017 13.1307 14.988 13.19 14.96C13.2813 14.9225 13.3595 14.8588 13.4146 14.7769C13.4698 14.6951 13.4995 14.5987 13.5 14.5V13.5H14.5C14.5987 13.4995 14.6951 13.4698 14.7769 13.4146C14.8588 13.3595 14.9225 13.2813 14.96 13.19C14.9983 13.0989 15.0088 12.9986 14.9901 12.9016C14.9714 12.8046 14.9244 12.7153 14.855 12.645L12.855 10.645C12.8083 10.5987 12.7529 10.562 12.692 10.5371C12.631 10.5122 12.5658 10.4996 12.5 10.5H11.205L8.335 7.63L11.735 4.235C11.7562 4.2086 11.7746 4.18012 11.79 4.15L12 4.215V5C11.9998 5.08497 12.0213 5.16859 12.0624 5.24295C12.1036 5.31731 12.1629 5.37997 12.235 5.425ZM13.295 12.5H13C12.8674 12.5 12.7402 12.5527 12.6464 12.6464C12.5527 12.7402 12.5 12.8674 12.5 13V13.295L11.5 12.295V11.5H12.295L13.295 12.5ZM2 2H3V3H2V2ZM3.91 10.645C3.81899 9.82071 3.89757 8.98651 4.14092 8.19372C4.38426 7.40092 4.78721 6.66629 5.325 6.035L6.925 7.63L3.91 10.645ZM7.63 6.925L6.035 5.325C6.66629 4.78721 7.40092 4.38426 8.19372 4.14092C8.98651 3.89757 9.82071 3.81899 10.645 3.91L7.63 6.925ZM4.955 4.955C3.96098 5.94672 3.28358 7.21108 3.00855 8.58801C2.73352 9.96494 2.87323 11.3925 3.41 12.69C3.44751 12.7813 3.51121 12.8595 3.59307 12.9146C3.67493 12.9698 3.77129 12.9995 3.87 13H4.19L3.69 14H3.5C3.49867 13.9143 3.47635 13.8301 3.435 13.755C2.5968 12.3149 2.25853 10.638 2.47291 8.98561C2.68729 7.33321 3.44227 5.79814 4.62021 4.61963C5.79814 3.44113 7.33285 2.6854 8.98515 2.47022C10.6374 2.25503 12.3145 2.59249 13.755 3.43C13.8293 3.4741 13.9137 3.49822 14 3.5V3.69L13 4.19V3.87C12.9995 3.77129 12.9698 3.67493 12.9146 3.59307C12.8595 3.51121 12.7813 3.44751 12.69 3.41C11.3925 2.87323 9.96494 2.73352 8.58801 3.00855C7.21108 3.28358 5.94672 3.96098 4.955 4.955Z" fill="#D9D9D9"/>
</svg>
