<svg width="16" height="16" viewBox="0 0 16 16" fill="none" xmlns="http://www.w3.org/2000/svg">
<path d="M12.5 3.5H9.5C8.94772 3.5 8.5 3.94772 8.5 4.5V7.5C8.5 8.05228 8.94772 8.5 9.5 8.5H12.5C13.0523 8.5 13.5 8.05228 13.5 7.5V4.5C13.5 3.94772 13.0523 3.5 12.5 3.5Z" fill="#F06292"/>
<path d="M12.75 1H4.32C3.90402 1.00132 3.50545 1.16715 3.2113 1.4613C2.91715 1.75545 2.75132 2.15402 2.75 2.57V13C2.75 13.3978 2.90804 13.7794 3.18934 14.0607C3.47064 14.342 3.85218 14.5 4.25 14.5H12.75C12.8826 14.5 13.0098 14.4473 13.1036 14.3536C13.1973 14.2598 13.25 14.1326 13.25 14V1.5C13.25 1.36739 13.1973 1.24021 13.1036 1.14645C13.0098 1.05268 12.8826 1 12.75 1ZM12.25 11.5H10.82C10.8804 11.2464 10.9928 11.008 11.15 10.8C11.4258 10.4448 11.8134 10.1929 12.25 10.085V11.5ZM12.25 7.5H8.5C8.30109 7.5 8.11032 7.42098 7.96967 7.28033C7.82902 7.13968 7.75 6.94891 7.75 6.75C7.75 6.55109 7.82902 6.36032 7.96967 6.21967C8.11032 6.07902 8.30109 6 8.5 6H12.25V7.5ZM12.25 3.415C11.8134 3.30713 11.4258 3.05524 11.15 2.7C10.9928 2.492 10.8804 2.25365 10.82 2H12.25V3.415ZM9.795 2C9.87249 2.47174 10.0629 2.91775 10.35 3.3C10.8203 3.90218 11.4973 4.3084 12.25 4.44V5H8.5C8.03587 5 7.59075 5.18437 7.26256 5.51256C6.93437 5.84075 6.75 6.28587 6.75 6.75C6.75 7.21413 6.93437 7.65925 7.26256 7.98744C7.59075 8.31563 8.03587 8.5 8.5 8.5H12.25V9.06C11.4973 9.1916 10.8203 9.59782 10.35 10.2C10.0629 10.5823 9.87249 11.0283 9.795 11.5H5.75V2H9.795ZM3.75 2.57C3.75 2.49515 3.76474 2.42103 3.79339 2.35187C3.82203 2.28271 3.86402 2.21988 3.91695 2.16695C3.96988 2.11402 4.03271 2.07203 4.10187 2.04339C4.17103 2.01474 4.24515 2 4.32 2H4.75V11.5H4.25C4.07943 11.5014 3.91034 11.5318 3.75 11.59V10C3.88261 10 4.00979 9.94732 4.10355 9.85355C4.19732 9.75979 4.25 9.63261 4.25 9.5C4.25 9.36739 4.19732 9.24021 4.10355 9.14645C4.00979 9.05268 3.88261 9 3.75 9V7C3.88261 7 4.00979 6.94732 4.10355 6.85355C4.19732 6.75979 4.25 6.63261 4.25 6.5C4.25 6.36739 4.19732 6.24021 4.10355 6.14645C4.00979 6.05268 3.88261 6 3.75 6V4C3.88261 4 4.00979 3.94732 4.10355 3.85355C4.19732 3.75979 4.25 3.63261 4.25 3.5C4.25 3.36739 4.19732 3.24021 4.10355 3.14645C4.00979 3.05268 3.88261 3 3.75 3V2.57ZM12.25 13.5H4.25C4.11739 13.5 3.99021 13.4473 3.89645 13.3536C3.80268 13.2598 3.75 13.1326 3.75 13C3.75 12.8674 3.80268 12.7402 3.89645 12.6464C3.99021 12.5527 4.11739 12.5 4.25 12.5H12.25V13.5Z" fill="#D9D9D9"/>
<path d="M7.75 11C7.88261 11 8.00979 10.9473 8.10355 10.8536C8.19732 10.7598 8.25 10.6326 8.25 10.5V9.5C8.25 9.36739 8.19732 9.24021 8.10355 9.14645C8.00979 9.05268 7.88261 9 7.75 9C7.61739 9 7.49021 9.05268 7.39645 9.14645C7.30268 9.24021 7.25 9.36739 7.25 9.5V10.5C7.25 10.6326 7.30268 10.7598 7.39645 10.8536C7.49021 10.9473 7.61739 11 7.75 11ZM7.75 4.5C7.88261 4.5 8.00979 4.44732 8.10355 4.35355C8.19732 4.25979 8.25 4.13261 8.25 4V3C8.25 2.86739 8.19732 2.74021 8.10355 2.64645C8.00979 2.55268 7.88261 2.5 7.75 2.5C7.61739 2.5 7.49021 2.55268 7.39645 2.64645C7.30268 2.74021 7.25 2.86739 7.25 3V4C7.25 4.13261 7.30268 4.25979 7.39645 4.35355C7.49021 4.44732 7.61739 4.5 7.75 4.5Z" fill="#D9D9D9"/>
</svg>
