<svg width="16" height="16" viewBox="0 0 16 16" fill="none" xmlns="http://www.w3.org/2000/svg">
<path d="M6 12.5C7.38071 12.5 8.5 11.3807 8.5 10C8.5 8.61929 7.38071 7.5 6 7.5C4.61929 7.5 3.5 8.61929 3.5 10C3.5 11.3807 4.61929 12.5 6 12.5Z" fill="#F06292"/>
<path d="M10.5 12.0251V4.43506C10.5 4.03723 10.342 3.6557 10.0607 3.3744C9.77936 3.09309 9.39782 2.93506 9 2.93506H2.5C2.10218 2.93506 1.72064 3.09309 1.43934 3.3744C1.15804 3.6557 1 4.03723 1 4.43506C1 4.83288 1.15804 5.21441 1.43934 5.49572C1.72064 5.77702 2.10218 5.93506 2.5 5.93506H3V13.4351C3 13.8329 3.15804 14.2144 3.43934 14.4957C3.72064 14.777 4.10218 14.9351 4.5 14.9351H10C10.3518 14.9323 10.6914 14.8061 10.9595 14.5783C11.2276 14.3505 11.4071 14.0358 11.4667 13.6891C11.5263 13.3424 11.4621 12.9858 11.2854 12.6816C11.1087 12.3774 10.8307 12.145 10.5 12.0251ZM3 4.93506H2.5C2.36739 4.93506 2.24021 4.88238 2.14645 4.78861C2.05268 4.69484 2 4.56767 2 4.43506C2 4.30245 2.05268 4.17527 2.14645 4.08151C2.24021 3.98774 2.36739 3.93506 2.5 3.93506C2.63261 3.93506 2.75979 3.98774 2.85355 4.08151C2.94732 4.17527 3 4.30245 3 4.43506V4.93506ZM4.5 13.9351C4.36739 13.9351 4.24021 13.8824 4.14645 13.7886C4.05268 13.6948 4 13.5677 4 13.4351V4.43506C3.99865 4.26449 3.96821 4.0954 3.91 3.93506H9C9.13261 3.93506 9.25979 3.98774 9.35355 4.08151C9.44732 4.17527 9.5 4.30245 9.5 4.43506V11.9351H4.5C4.36739 11.9351 4.24021 11.9877 4.14645 12.0815C4.05268 12.1753 4 12.3025 4 12.4351C4 12.5677 4.05268 12.6948 4.14645 12.7886C4.24021 12.8824 4.36739 12.9351 4.5 12.9351C4.63261 12.9351 4.75979 12.9877 4.85355 13.0815C4.94732 13.1753 5 13.3025 5 13.4351C5 13.5677 4.94732 13.6948 4.85355 13.7886C4.75979 13.8824 4.63261 13.9351 4.5 13.9351ZM10 13.9351H5.915C5.97151 13.7744 6.00025 13.6053 6 13.4351C6.00025 13.2648 5.97151 13.0957 5.915 12.9351H10C10.1326 12.9351 10.2598 12.9877 10.3536 13.0815C10.4473 13.1753 10.5 13.3025 10.5 13.4351C10.5 13.5677 10.4473 13.6948 10.3536 13.7886C10.2598 13.8824 10.1326 13.9351 10 13.9351Z" fill="#D9D9D9"/>
<path d="M5.5 6.43503H8C8.13261 6.43503 8.25979 6.38235 8.35355 6.28858C8.44732 6.19482 8.5 6.06764 8.5 5.93503C8.5 5.80242 8.44732 5.67525 8.35355 5.58148C8.25979 5.48771 8.13261 5.43503 8 5.43503H5.5C5.36739 5.43503 5.24021 5.48771 5.14645 5.58148C5.05268 5.67525 5 5.80242 5 5.93503C5 6.06764 5.05268 6.19482 5.14645 6.28858C5.24021 6.38235 5.36739 6.43503 5.5 6.43503ZM5.5 8.43503H8C8.13261 8.43503 8.25979 8.38235 8.35355 8.28858C8.44732 8.19482 8.5 8.06764 8.5 7.93503C8.5 7.80242 8.44732 7.67525 8.35355 7.58148C8.25979 7.48771 8.13261 7.43503 8 7.43503H5.5C5.36739 7.43503 5.24021 7.48771 5.14645 7.58148C5.05268 7.67525 5 7.80242 5 7.93503C5 8.06764 5.05268 8.19482 5.14645 8.28858C5.24021 8.38235 5.36739 8.43503 5.5 8.43503ZM5.5 10.435H7.5C7.63261 10.435 7.75979 10.3824 7.85355 10.2886C7.94732 10.1948 8 10.0676 8 9.93503C8 9.80242 7.94732 9.67525 7.85355 9.58148C7.75979 9.48771 7.63261 9.43503 7.5 9.43503H5.5C5.36739 9.43503 5.24021 9.48771 5.14645 9.58148C5.05268 9.67525 5 9.80242 5 9.93503C5 10.0676 5.05268 10.1948 5.14645 10.2886C5.24021 10.3824 5.36739 10.435 5.5 10.435ZM14.97 8.24003C15.0084 7.39789 14.9867 6.55408 14.905 5.71503C14.9125 5.67202 14.9125 5.62804 14.905 5.58503C14.7632 4.15743 14.4493 2.75223 13.97 1.40003C13.935 1.3035 13.8711 1.22011 13.787 1.16117C13.7029 1.10223 13.6027 1.07062 13.5 1.07062C13.3973 1.07062 13.2971 1.10223 13.213 1.16117C13.1289 1.22011 13.065 1.3035 13.03 1.40003C12.5541 2.75265 12.2435 4.15785 12.105 5.58503C12.0975 5.62804 12.0975 5.67202 12.105 5.71503C12.0233 6.55408 12.0016 7.39789 12.04 8.24003C12.0303 8.29124 12.0303 8.34382 12.04 8.39503C12.0884 9.58544 12.2559 10.768 12.54 11.925C12.6066 12.1812 12.772 12.4006 13 12.535V13.435C13 13.5676 13.0527 13.6948 13.1464 13.7886C13.2402 13.8824 13.3674 13.935 13.5 13.935C13.6326 13.935 13.7598 13.8824 13.8536 13.7886C13.9473 13.6948 14 13.5676 14 13.435V12.535C14.2205 12.3967 14.3783 12.1779 14.44 11.925C14.7241 10.768 14.8916 9.58544 14.94 8.39503C14.9598 8.34576 14.97 8.29314 14.97 8.24003ZM13.5 11.435C13.37 10.89 13.27 10.34 13.195 9.79003C13.2379 9.83418 13.2892 9.86928 13.3459 9.89325C13.4025 9.91721 13.4635 9.92956 13.525 9.92956C13.5865 9.92956 13.6475 9.91721 13.7041 9.89325C13.7608 9.86928 13.8121 9.83418 13.855 9.79003C13.78 10.34 13.68 10.89 13.55 11.435H13.5ZM13.1 7.23003C13.1466 7.29213 13.207 7.34253 13.2764 7.37724C13.3458 7.41196 13.4224 7.43003 13.5 7.43003C13.5776 7.43003 13.6542 7.41196 13.7236 7.37724C13.793 7.34253 13.8534 7.29213 13.9 7.23003L13.99 7.11503C13.99 7.44503 13.99 7.78003 13.99 8.11503L13.49 8.66503L12.99 8.11503C12.99 7.78003 12.99 7.44503 12.99 7.11503L13.1 7.23003ZM13.89 5.56503L13.5 6.09503L13.11 5.56503C13.1896 4.80552 13.3199 4.05217 13.5 3.31003C13.6801 4.05217 13.8104 4.80552 13.89 5.56503Z" fill="#D9D9D9"/>
</svg>
