<svg width="16" height="16" viewBox="0 0 16 16" fill="none" xmlns="http://www.w3.org/2000/svg">
<path d="M8.13 1.99999L5.54 6.49999C5.45206 6.6523 5.40585 6.82511 5.40602 7.00099C5.4062 7.17686 5.45275 7.34958 5.54099 7.50172C5.62923 7.65385 5.75603 7.78003 5.90861 7.86751C6.06118 7.95499 6.23413 8.00069 6.41 7.99999H11.59C11.7659 8.00069 11.9388 7.95499 12.0914 7.86751C12.244 7.78003 12.3708 7.65385 12.459 7.50172C12.5473 7.34958 12.5938 7.17686 12.594 7.00099C12.5942 6.82511 12.5479 6.6523 12.46 6.49999L9.87 1.99999C9.78278 1.84609 9.6563 1.71808 9.50346 1.62902C9.35062 1.53997 9.17689 1.49304 9 1.49304C8.82311 1.49304 8.64938 1.53997 8.49654 1.62902C8.3437 1.71808 8.21722 1.84609 8.13 1.99999Z" fill="#F06292"/>
<path d="M9.76999 5.62003L8.35499 4.20503C8.30851 4.15816 8.25321 4.12097 8.19228 4.09558C8.13135 4.0702 8.066 4.05713 7.99999 4.05713C7.93399 4.05713 7.86863 4.0702 7.8077 4.09558C7.74677 4.12097 7.69147 4.15816 7.64499 4.20503L6.22999 5.62003C6.13687 5.71371 6.08459 5.84044 6.08459 5.97253C6.08459 6.10462 6.13687 6.23135 6.22999 6.32503L7.37999 7.47003L6.22999 8.62003C6.13687 8.71371 6.08459 8.84044 6.08459 8.97253C6.08459 9.10462 6.13687 9.23135 6.22999 9.32503L7.64499 10.74C7.69147 10.7869 7.74677 10.8241 7.8077 10.8495C7.86863 10.8749 7.93399 10.8879 7.99999 10.8879C8.066 10.8879 8.13135 10.8749 8.19228 10.8495C8.25321 10.8241 8.30851 10.7869 8.35499 10.74L9.76999 9.32503C9.86312 9.23135 9.91539 9.10462 9.91539 8.97253C9.91539 8.84044 9.86312 8.71371 9.76999 8.62003L8.61999 7.47003L9.76999 6.32503C9.86312 6.23135 9.91539 6.10462 9.91539 5.97253C9.91539 5.84044 9.86312 5.71371 9.76999 5.62003ZM7.99999 9.68003L7.29499 9.00003L7.99999 8.26503L8.70499 9.00003L7.99999 9.68003ZM7.99999 6.68003L7.29499 6.00003L7.99999 5.26503L8.70499 6.00003L7.99999 6.68003Z" fill="#D9D9D9"/>
<path d="M11.315 1H4.68499C4.10808 0.999986 3.55458 1.22813 3.14524 1.63466C2.73591 2.04119 2.50395 2.59311 2.49999 3.17V10.17C2.49908 10.4977 2.57238 10.8213 2.7144 11.1166C2.85641 11.4119 3.06346 11.6712 3.31999 11.875L6.63499 14.53C7.02204 14.8408 7.50359 15.0102 7.99999 15.0102C8.4964 15.0102 8.97794 14.8408 9.36499 14.53L12.68 11.875C12.9359 11.6717 13.1425 11.4132 13.2845 11.1188C13.4265 10.8245 13.5002 10.5018 13.5 10.175V3.175C13.4973 2.59724 13.266 2.04404 12.8565 1.63643C12.447 1.22883 11.8928 0.999994 11.315 1ZM12.5 10.175C12.5014 10.3529 12.462 10.5288 12.3849 10.6892C12.3077 10.8495 12.1949 10.99 12.055 11.1L8.73999 13.755C8.52916 13.9298 8.26388 14.0255 7.98999 14.0255C7.71611 14.0255 7.45083 13.9298 7.23999 13.755L3.94499 11.1C3.80511 10.99 3.69226 10.8495 3.61513 10.6892C3.53799 10.5288 3.4986 10.3529 3.49999 10.175V3.175C3.50263 2.86245 3.62864 2.56361 3.85059 2.34354C4.07253 2.12346 4.37244 1.99999 4.68499 2H11.315C11.6267 1.99998 11.9259 2.12276 12.1477 2.34176C12.3695 2.56076 12.496 2.85833 12.5 3.17V10.175Z" fill="#D9D9D9"/>
<path d="M10.68 2.5H5.32C4.9725 2.49998 4.639 2.63699 4.39188 2.8813C4.14476 3.12561 4.00395 3.45752 4 3.805V9.74C4.00027 9.93899 4.04536 10.1354 4.13192 10.3145C4.21848 10.4937 4.34429 10.6511 4.5 10.775L7.18 12.915C7.41254 13.1059 7.70411 13.2103 8.005 13.2103C8.30589 13.2103 8.59746 13.1059 8.83 12.915L11.5 10.775C11.6557 10.6511 11.7815 10.4937 11.8681 10.3145C11.9546 10.1354 11.9997 9.93899 12 9.74V3.805C11.9961 3.45752 11.8552 3.12561 11.6081 2.8813C11.361 2.63699 11.0275 2.49998 10.68 2.5ZM11 9.74C11 9.788 10.9893 9.8354 10.9685 9.87867C10.9477 9.92195 10.9175 9.96 10.88 9.99L8.2 12.135C8.14364 12.1813 8.07295 12.2066 8 12.2066C7.92705 12.2066 7.85636 12.1813 7.8 12.135L5.12 10C5.08253 9.97 5.05229 9.93195 5.03151 9.88867C5.01074 9.8454 4.99997 9.798 5 9.75V3.805C5.00386 3.72276 5.03927 3.64517 5.09887 3.58836C5.15847 3.53156 5.23767 3.49991 5.32 3.5H10.68C10.7649 3.5 10.8463 3.53371 10.9063 3.59373C10.9663 3.65374 11 3.73513 11 3.82V9.74Z" fill="#D9D9D9"/>
</svg>
