<svg width="28" height="28" viewBox="0 0 28 28" fill="none" xmlns="http://www.w3.org/2000/svg">
<path d="M14.14 28C12.18 28 10.3425 27.6267 8.6275 26.88C6.9125 26.1333 5.41917 25.1242 4.1475 23.8525C2.87583 22.5808 1.86667 21.0875 1.12 19.3725C0.373333 17.6575 0 15.82 0 13.86C0 10.4533 1.085 7.44917 3.255 4.8475C5.425 2.24583 8.19 0.63 11.55 0C11.13 2.28667 11.2583 4.5325 11.935 6.7375C12.6117 8.9425 13.7783 10.8733 15.435 12.53C17.0917 14.1867 19.0225 15.3592 21.2275 16.0475C23.4325 16.7358 25.69 16.87 28 16.45C27.3933 19.81 25.7833 22.575 23.17 24.745C20.5567 26.915 17.5467 28 14.14 28Z" fill="white"/>
</svg>
