<svg xmlns="http://www.w3.org/2000/svg" enable-background="new 0 0 64 64" viewBox="0 0 64 64"><path d="M60,24h-6v-6c0-1.1044922-0.8955078-2-2-2H4c-1.1044922,0-2,0.8955078-2,2v28c0,1.1044922,0.8955078,2,2,2h48
	c1.1044922,0,2-0.8955078,2-2v-6h6c1.1044922,0,2-0.8955078,2-2V26C62,24.8955078,61.1044922,24,60,24z M50,44H6V20h44v6v12V44z
	 M58,36h-4v-8h4V36z M18,22h-8c-1.1044922,0-2,0.8955078-2,2v16c0,1.1044922,0.8955078,2,2,2h8c1.1044922,0,2-0.8955078,2-2V24
	C20,22.8955078,19.1044922,22,18,22z M16,38h-4V26h4V38z M32,22h-8c-1.1044922,0-2,0.8955078-2,2v16c0,1.1044922,0.8955078,2,2,2h8
	c1.1044922,0,2-0.8955078,2-2V24C34,22.8955078,33.1044922,22,32,22z M30,38h-4V26h4V38z"/></svg>