<svg width="20" height="20" viewBox="0 0 20 20" fill="none" xmlns="http://www.w3.org/2000/svg">
<path d="M13.1688 5.28461L8.15543 6.63518C7.98554 6.6807 7.83067 6.77022 7.70643 6.8947C7.58219 7.01919 7.49298 7.17424 7.4478 7.34421C7.40262 7.51418 7.40306 7.69307 7.44909 7.86281C7.49511 8.03256 7.58509 8.18716 7.70995 8.31103L11.3728 11.9738C11.4966 12.0987 11.6512 12.1887 11.821 12.2347C11.9907 12.2807 12.1696 12.2812 12.3396 12.236C12.5095 12.1908 12.6646 12.1016 12.7891 11.9774C12.9136 11.8531 13.0031 11.6982 13.0486 11.5284L14.3992 6.51498C14.4463 6.34448 14.4474 6.16453 14.4023 5.99348C14.3572 5.82243 14.2675 5.66641 14.1425 5.54133C14.0174 5.41624 13.8614 5.32658 13.6903 5.28148C13.5193 5.23638 13.3393 5.23746 13.1688 5.28461Z" fill="#F06292"/>
<path d="M7.33333 15.9583C7.20833 15.8055 7.10763 15.6458 7.03125 15.4791C6.95486 15.3125 6.91666 15.125 6.91666 14.9166C6.91666 14.4722 7.07638 14.0937 7.39583 13.7812C7.71527 13.4687 8.09722 13.3125 8.54166 13.3125L9 12.8541C9.11111 12.743 9.23611 12.6597 9.375 12.6041C9.51388 12.5486 9.65972 12.5208 9.8125 12.5208C10.1319 12.5208 10.3993 12.6285 10.6146 12.8437C10.8299 13.059 10.9375 13.3264 10.9375 13.6458V14C10.9375 14.25 11.0347 14.4653 11.2292 14.6458C11.4236 14.8264 11.6458 14.9166 11.8958 14.9166C12.0903 14.9166 12.2674 14.8576 12.4271 14.7396C12.5868 14.6215 12.7014 14.4653 12.7708 14.2708L12.9792 13.6041C13.0903 13.2847 13.2778 13.0243 13.5417 12.8229C13.8056 12.6215 14.1111 12.5208 14.4583 12.5208H15.9375C16.0903 12.1319 16.2118 11.7257 16.3021 11.3021C16.3924 10.8785 16.4375 10.4444 16.4375 9.99998C16.4375 8.73609 16.1215 7.5972 15.4896 6.58331C14.8576 5.56942 14.0139 4.79165 12.9583 4.24998V4.95831C12.9583 5.23609 12.8611 5.47567 12.6667 5.67706C12.4722 5.87845 12.2361 5.97915 11.9583 5.97915H10.9375V7.47915C10.9375 7.75692 10.8403 7.99651 10.6458 8.1979C10.4514 8.39929 10.2153 8.49998 9.9375 8.49998C9.9375 8.74998 8.84375 10.5486 8.65625 10.7291C8.46875 10.9097 8.25 11 8 11C7.81944 11 7.65277 10.9514 7.5 10.8541C7.34722 10.7569 7.23611 10.6319 7.16666 10.4791L5.70833 8.49998H4.89583V9.49998C4.89583 9.90276 4.76689 10.2465 4.50902 10.5312C4.25115 10.816 3.92176 10.9722 3.52083 11C3.70138 12.125 4.12847 13.1215 4.80208 13.9896C5.47569 14.8576 6.31944 15.5139 7.33333 15.9583ZM11.7083 11.5C11.5 11.5 11.3194 11.4271 11.1667 11.2812C11.0139 11.1354 10.9375 10.9583 10.9375 10.75C10.9375 10.5416 11.0139 10.3646 11.1667 10.2187C11.3194 10.0729 11.5 9.99998 11.7083 9.99998H12.7083C12.9167 9.99998 13.0937 10.0729 13.2396 10.2187C13.3854 10.3646 13.4583 10.5416 13.4583 10.75C13.4583 10.9583 13.3854 11.1354 13.2396 11.2812C13.0937 11.4271 12.9167 11.5 12.7083 11.5H11.7083ZM13.1458 8.95831C12.9514 8.88887 12.809 8.75692 12.7187 8.56248C12.6285 8.36804 12.6181 8.17359 12.6875 7.97915L13 7.04165C13.0694 6.8472 13.1979 6.70137 13.3854 6.60415C13.5729 6.50692 13.7639 6.49304 13.9583 6.56248C14.1528 6.63192 14.2951 6.7604 14.3854 6.9479C14.4757 7.1354 14.4861 7.32637 14.4167 7.52081L14.1042 8.49998C14.0347 8.69442 13.9062 8.83679 13.7187 8.92706C13.5312 9.01734 13.3403 9.02776 13.1458 8.95831ZM9.94112 16.9166C8.99426 16.9166 8.10029 16.7368 7.2592 16.3773C6.41811 16.0176 5.68147 15.5222 5.04931 14.8908C4.41715 14.2595 3.92104 13.5238 3.56095 12.6839C3.20087 11.8439 3.02083 10.9505 3.02083 10.0036C3.02083 9.04285 3.20063 8.14541 3.56022 7.31127C3.91984 6.47712 4.41531 5.74397 5.04664 5.11181C5.67799 4.47965 6.41365 3.98352 7.25362 3.62344C8.09359 3.26335 8.98701 3.08331 9.93387 3.08331C10.8946 3.08331 11.7921 3.26311 12.6262 3.62271C13.4604 3.98232 14.1935 4.47779 14.8257 5.10913C15.4578 5.74047 15.954 6.47266 16.314 7.30569C16.6741 8.13872 16.8542 9.0356 16.8542 9.99635C16.8542 10.9432 16.6744 11.8372 16.3148 12.6783C15.9552 13.5194 15.4597 14.256 14.8283 14.8882C14.197 15.5203 13.4648 16.0164 12.6318 16.3765C11.7988 16.7366 10.9019 16.9166 9.94112 16.9166Z" fill="#011C41"/>
</svg>
