<svg width="16" height="16" viewBox="0 0 16 16" fill="none" xmlns="http://www.w3.org/2000/svg">
<path d="M8.12999 1.99999L5.53999 6.49999C5.45205 6.6523 5.40583 6.82511 5.40601 7.00099C5.40618 7.17686 5.45274 7.34958 5.54098 7.50172C5.62921 7.65385 5.75602 7.78003 5.90859 7.86751C6.06116 7.95499 6.23411 8.00069 6.40999 7.99999H11.59C11.7659 8.00069 11.9388 7.95499 12.0914 7.86751C12.244 7.78003 12.3708 7.65385 12.459 7.50172C12.5472 7.34958 12.5938 7.17686 12.594 7.00099C12.5941 6.82511 12.5479 6.6523 12.46 6.49999L9.86999 1.99999C9.78277 1.84609 9.65629 1.71808 9.50345 1.62902C9.35061 1.53997 9.17688 1.49304 8.99999 1.49304C8.82309 1.49304 8.64936 1.53997 8.49652 1.62902C8.34368 1.71808 8.2172 1.84609 8.12999 1.99999Z" fill="#F06292"/>
<path d="M14.895 4.535V4.505C14.8847 4.47213 14.8713 4.44032 14.855 4.41C14.8414 4.38039 14.8228 4.35333 14.8 4.33V4.3L14.75 4.265C14.7254 4.24238 14.6986 4.22228 14.67 4.205L14.58 4.17H14.49C14.455 4.1675 14.42 4.1675 14.385 4.17H14.3H14.265L14.175 4.21L14.09 4.265H14.06C13.8799 4.43036 13.6672 4.55624 13.4356 4.6346C13.204 4.71295 12.9585 4.74204 12.715 4.72C12.4077 4.67369 12.1208 4.53807 11.89 4.33L12.12 4.1C12.2131 4.00632 12.2654 3.8796 12.2654 3.7475C12.2654 3.61541 12.2131 3.48869 12.12 3.395C12.0735 3.34814 12.0182 3.31094 11.9573 3.28556C11.8964 3.26017 11.831 3.2471 11.765 3.2471C11.699 3.2471 11.6336 3.26017 11.5727 3.28556C11.5118 3.31094 11.4565 3.34814 11.41 3.395L11.18 3.625L11 3.47L11.235 3.235C11.29 3.1793 11.3312 3.11146 11.3552 3.03694C11.3792 2.96241 11.3854 2.88329 11.3732 2.80594C11.3611 2.72859 11.3309 2.65518 11.2852 2.59162C11.2395 2.52806 11.1795 2.47613 11.11 2.44C10.1261 1.91105 9.0065 1.68819 7.895 1.8C5.64 2.05 3.685 3.75 2.79 6.23C2.78757 6.24491 2.78757 6.2601 2.79 6.275C2.78479 6.30981 2.78479 6.3452 2.79 6.38C2.78496 6.40979 2.78496 6.44021 2.79 6.47C2.78777 6.49996 2.78777 6.53005 2.79 6.56C2.79932 6.59163 2.81277 6.62189 2.83 6.65C2.83 6.65 2.83 6.68 2.83 6.695L2.865 6.725C2.88626 6.75205 2.91155 6.77566 2.94 6.795C2.96662 6.81443 2.99509 6.83118 3.025 6.845L3.065 6.87C3.065 6.87 3.1 6.87 3.115 6.87H3.19H3.235H3.31H3.36C3.41877 6.8568 3.47466 6.83309 3.525 6.8C3.88301 6.54534 4.29078 6.36916 4.7216 6.28299C5.15242 6.19683 5.59658 6.20263 6.025 6.3C6.33692 6.38997 6.62997 6.53565 6.89 6.73L1.145 12.5C1.05187 12.5937 0.999603 12.7204 0.999603 12.8525C0.999603 12.9846 1.05187 13.1113 1.145 13.205L2.025 14.085C2.07148 14.1319 2.12678 14.1691 2.18771 14.1944C2.24864 14.2198 2.31399 14.2329 2.38 14.2329C2.44601 14.2329 2.51136 14.2198 2.57229 14.1944C2.63322 14.1691 2.68852 14.1319 2.735 14.085L8.625 8.195C8.82882 8.34023 8.98999 8.53743 9.09172 8.76609C9.19345 8.99474 9.23203 9.24649 9.20344 9.49512C9.17485 9.74374 9.08014 9.98016 8.92916 10.1798C8.77818 10.3794 8.57646 10.5348 8.345 10.63L8.295 10.665C8.26466 10.682 8.23617 10.7021 8.21 10.725C8.1858 10.7459 8.164 10.7693 8.145 10.795C8.145 10.82 8.11 10.845 8.095 10.875C8.08115 10.9058 8.06945 10.9376 8.06 10.97C8.06 10.97 8.06 11.01 8.06 11.035C8.06 11.06 8.06 11.035 8.06 11.06C8.05751 11.0933 8.05751 11.1267 8.06 11.16C8.05765 11.1933 8.05765 11.2267 8.06 11.26C8.06236 11.2682 8.06236 11.2768 8.06 11.285C8.07535 11.3167 8.09377 11.3469 8.115 11.375C8.115 11.375 8.115 11.375 8.115 11.405C8.14963 11.4522 8.19396 11.4914 8.245 11.52H8.285C8.32442 11.5446 8.36884 11.5599 8.415 11.565H8.445C8.65238 11.5899 8.86113 11.6016 9.07 11.6C10.6318 11.6394 12.1469 11.065 13.29 10C15.56 7.765 14.92 4.665 14.895 4.535ZM2.205 12.855L2.38 12.68L2.555 12.855L2.38 13.025L2.205 12.855ZM3.26 12.145L3.085 12L7.66 7.425L7.83 7.6L3.26 12.145ZM8.84 7.17L8 6.345C7.58128 5.91872 7.06711 5.59822 6.5 5.41C7.03886 4.88084 7.74704 4.55862 8.5 4.5C8.63261 4.5 8.75979 4.44733 8.85355 4.35356C8.94732 4.25979 9 4.13261 9 4C9 3.8674 8.94732 3.74022 8.85355 3.64645C8.75979 3.55268 8.63261 3.5 8.5 3.5C7.45 3.5 6.295 4.125 5.305 5.205C4.96648 5.21035 4.63019 5.2608 4.305 5.355C4.68263 4.67247 5.21236 4.08607 5.85314 3.64126C6.49391 3.19645 7.22851 2.90517 8 2.79C8.6774 2.72033 9.36175 2.80759 10 3.045L9.93 3.115C9.88366 3.16172 9.847 3.21713 9.82211 3.27805C9.79723 3.33897 9.78462 3.4042 9.785 3.47C9.78555 3.60117 9.83763 3.72687 9.93 3.82L10.825 4.7L11.12 4.995C11.5005 5.36077 11.9806 5.60603 12.5 5.7C12.4818 6.58438 12.1237 7.42777 11.5 8.055C11.1341 8.41707 10.689 8.68921 10.2 8.85C10.1216 8.48267 9.95758 8.13903 9.72124 7.84709C9.48491 7.55515 9.18297 7.32316 8.84 7.17ZM12.59 9.27C11.8453 9.98915 10.8873 10.4471 9.86 10.575C9.988 10.3642 10.0825 10.1348 10.14 9.895C11.0886 9.66524 11.9337 9.12627 12.542 8.36309C13.1504 7.5999 13.4875 6.65592 13.5 5.68C13.6721 5.63626 13.8395 5.57598 14 5.5C14.0428 6.19217 13.9393 6.88558 13.6964 7.53512C13.4534 8.18466 13.0765 8.77578 12.59 9.27Z" fill="#011C41"/>
<path d="M10.24 6.46497L10.825 7.04997C10.9192 7.14346 11.0466 7.19571 11.1793 7.19524C11.312 7.19478 11.439 7.14162 11.5325 7.04747C11.626 6.95331 11.6783 6.82588 11.6778 6.6932C11.6773 6.56052 11.6242 6.43346 11.53 6.33997L9.77001 4.57997C9.67633 4.48684 9.54961 4.43457 9.41751 4.43457C9.28542 4.43457 9.15869 4.48684 9.06501 4.57997C9.01815 4.62645 8.98095 4.68175 8.95557 4.74268C8.93018 4.80361 8.91711 4.86896 8.91711 4.93497C8.91711 5.00097 8.93018 5.06633 8.95557 5.12725C8.98095 5.18818 9.01815 5.24349 9.06501 5.28997L9.53501 5.75997L9.14501 6.14497C9.09815 6.19145 9.06095 6.24675 9.03557 6.30768C9.01018 6.36861 8.99711 6.43396 8.99711 6.49997C8.99711 6.56597 9.01018 6.63133 9.03557 6.69226C9.06095 6.75318 9.09815 6.80849 9.14501 6.85497C9.1915 6.90183 9.2468 6.93903 9.30772 6.96441C9.36865 6.9898 9.43401 7.00287 9.50001 7.00287C9.56602 7.00287 9.63137 6.9898 9.6923 6.96441C9.75323 6.93903 9.80853 6.90183 9.85501 6.85497L10.24 6.46497Z" fill="#011C41"/>
</svg>
